<?xml version="1.0" encoding="UTF-8"?>
<svg version="1.1" xmlns="http://www.w3.org/2000/svg" width="300" height="250">
<path d="M0 0 C99 0 198 0 300 0 C300 82.5 300 165 300 250 C201 250 102 250 0 250 C0 167.5 0 85 0 0 Z " fill="#F5F1E6" transform="translate(0,0)"/>
<path d="M0 0 C0.92941406 -0.01160156 1.85882813 -0.02320313 2.81640625 -0.03515625 C14.15743646 0.01229576 23.15740107 3.43510656 32.125 10.375 C33.765625 12.2109375 33.765625 12.2109375 35.125 14 C38.13607403 17.87138089 41.68627076 19.2190378 46.13671875 21.0859375 C67.5536994 30.32463504 84.67726052 49.40195567 93.4375 70.8125 C102.26972157 93.83591769 101.42186504 118.22238915 91.8125 140.8125 C87.43172234 150.5500469 81.32725884 158.5378916 74.125 166.375 C74.44984375 167.0659375 74.7746875 167.756875 75.109375 168.46875 C76.26328794 171.77071626 76.39131227 174.38417461 76.375 177.875 C76.38273437 179.53015625 76.38273437 179.53015625 76.390625 181.21875 C76.125 184.375 76.125 184.375 74.125 189.375 C78.085 189.375 82.045 189.375 86.125 189.375 C86.125 195.975 86.125 202.575 86.125 209.375 C89.425 209.375 92.725 209.375 96.125 209.375 C96.125 215.975 96.125 222.575 96.125 229.375 C77.28844022 229.42127864 58.45189647 229.45697936 39.6152916 229.47862434 C30.86932186 229.48894117 22.12338807 229.50300928 13.37744141 229.52587891 C5.75533819 229.54580033 -1.86673899 229.55871348 -9.48886752 229.56317699 C-13.52550145 229.56578649 -17.56206088 229.57192838 -21.59867096 229.58646011 C-25.39726174 229.60002432 -29.19574727 229.604225 -32.99435997 229.60121536 C-34.38916025 229.60176605 -35.78396401 229.60575044 -37.17874336 229.61341095 C-39.08221013 229.62335341 -40.98573324 229.61977921 -42.88922119 229.61550903 C-44.48761023 229.61827441 -44.48761023 229.61827441 -46.11828995 229.62109566 C-48.92181934 229.37082037 -50.4228389 228.6556866 -52.875 227.375 C-56.42816022 227.68668072 -59.49273432 228.24757811 -62.875 229.375 C-68.87782609 229.97993596 -73.51707599 229.363073 -78.875 226.375 C-83.65929941 222.35183913 -86.51668068 218.21572973 -87.30859375 211.9375 C-87.32175025 199.93877 -87.32175025 199.93877 -82.875 195.375 C-77.43439219 190.2107867 -73.32783676 188.2349427 -65.875 187.375 C-66.205 186.385 -66.535 185.395 -66.875 184.375 C-66.97004628 182.23086777 -67.00487226 180.0837323 -67 177.9375 C-67.00386719 176.23787109 -67.00386719 176.23787109 -67.0078125 174.50390625 C-66.875 171.375 -66.875 171.375 -66.12109375 169.2421875 C-65.62901129 167.18815791 -65.62901129 167.18815791 -67.46484375 165.25390625 C-68.23957031 164.48949219 -69.01429687 163.72507813 -69.8125 162.9375 C-86.64820357 145.13302344 -93.52358207 121.56403445 -93.15234375 97.5 C-92.28822316 74.76632006 -81.36426087 51.99492909 -64.875 36.375 C-57.31169238 29.54206563 -49.59833158 24.50059491 -40.36108398 20.22680664 C-35.5324653 17.91844793 -32.62516291 15.48703234 -29.4375 11.26171875 C-21.98862934 2.26720743 -11.06822163 -0.13702063 0 0 Z " fill="#102439" transform="translate(147.875,5.625)"/>
<path d="M0 0 C5.69705751 4.43104473 7.42639867 10.09975815 9 17 C9.56156176 21.66564228 9.86105933 26.30380542 10 31 C10.33 31 10.66 31 11 31 C11.185625 29.329375 11.185625 29.329375 11.375 27.625 C12 24 12 24 14 22 C15.8215332 21.73930359 15.8215332 21.73930359 18.05078125 21.7253418 C18.88504639 21.71580978 19.71931152 21.70627777 20.57885742 21.69645691 C21.48095947 21.69736832 22.38306152 21.69827972 23.3125 21.69921875 C24.23716064 21.69493362 25.16182129 21.6906485 26.11450195 21.68623352 C28.07144348 21.68048497 30.02840639 21.67999381 31.98535156 21.68432617 C34.98799871 21.68748737 37.9896622 21.66402938 40.9921875 21.63867188 C42.89062375 21.63639915 44.78906266 21.63569526 46.6875 21.63671875 C47.58960205 21.627509 48.4917041 21.61829926 49.42114258 21.60881042 C50.67254028 21.61815361 50.67254028 21.61815361 51.94921875 21.62768555 C52.68487061 21.62705612 53.42052246 21.6264267 54.1784668 21.6257782 C56 22 56 22 58 25 C58.29452584 27.38677076 58.4928217 29.78626094 58.625 32.1875 C58.73714844 34.09595703 58.73714844 34.09595703 58.8515625 36.04296875 C58.90054688 37.01878906 58.94953125 37.99460938 59 39 C59.92291244 35.6220935 60.22917555 32.34722626 60.49389648 28.85595703 C61.35198715 18.41387007 63.82929694 9.05065879 71 1 C71.99 1 72.98 1 74 1 C73.67 2.32 73.34 3.64 73 5 C73.5775 4.855625 74.155 4.71125 74.75 4.5625 C75.4925 4.376875 76.235 4.19125 77 4 C77.61488281 3.79890625 78.22976562 3.5978125 78.86328125 3.390625 C83.74792986 2.49763622 88.75529553 5.22551722 92.8125 7.75 C97.17631246 12.23849282 99.38670631 16.71373966 100 23 C97.36 23 94.72 23 92 23 C92.928125 23.433125 93.85625 23.86625 94.8125 24.3125 C98.88042321 26.46610641 100.54464728 27.63394185 102 32 C103.07829973 46.97839883 102.18633838 60.8367298 94.25 73.875 C88.54059203 79.26721864 81.82229318 79.48938505 74.33447266 79.41723633 C59.51376881 78.87808518 46.06301488 72.53150744 33 66 C32.5859375 63.49609375 32.5859375 63.49609375 32.375 60.4375 C32.30023438 59.42558594 32.22546875 58.41367188 32.1484375 57.37109375 C32.09945312 56.58863281 32.05046875 55.80617187 32 55 C31.34 55 30.68 55 30 55 C30 57.64 30 60.28 30 63 C25.21626007 61.3598606 21.29276103 59.21616176 18.6875 54.75 C18.3471875 53.88375 18.3471875 53.88375 18 53 C16.35 53 14.7 53 13 53 C15.89078609 57.85340311 18.95292846 60.88288225 23.5 64.1875 C24.06847656 64.61224609 24.63695312 65.03699219 25.22265625 65.47460938 C26.80901952 66.65794067 28.40423921 67.82937245 30 69 C31.33437238 69.9986131 32.66823509 70.99791218 34 72 C22.3861004 76.70957346 11.71920422 78.18219754 -0.75 78.375 C-1.73258789 78.40110352 -2.71517578 78.42720703 -3.72753906 78.45410156 C-9.95406988 78.46887137 -14.9574257 77.87325038 -20 74 C-24.08658255 69.81819739 -26.05929556 65.04887118 -27.3125 59.375 C-27.47274658 58.65787842 -27.63299316 57.94075684 -27.7980957 57.2019043 C-29.02174861 51.10183532 -29.51946296 45.02606396 -29.6875 38.8125 C-29.73108643 37.92804199 -29.77467285 37.04358398 -29.81958008 36.13232422 C-29.82633419 32.41898514 -29.81630603 29.98745497 -27.39306641 27.05615234 C-25.65846888 25.56041743 -23.92599261 24.23646666 -22 23 C-23.175625 23.2475 -23.175625 23.2475 -24.375 23.5 C-27 24 -27 24 -29 24 C-28.2144192 16.17625649 -25.98846669 11.19640496 -20 6 C-16.10654742 3.14827386 -13.48318458 2.65440051 -8.6875 2.8125 C-7.08455078 2.85310547 -7.08455078 2.85310547 -5.44921875 2.89453125 C-4.64097656 2.92933594 -3.83273438 2.96414062 -3 3 C-3 2.34 -3 1.68 -3 1 C-2.01 0.67 -1.02 0.34 0 0 Z " fill="#14263B" transform="translate(113,83)"/>
<path d="M0 0 C5.88213743 3.04999719 10.80817163 7.48701489 12.9375 13.875 C13.75425513 22.84763847 13.52632229 30.50914927 7.9375 37.875 C1.85605978 44.10186597 -5.82695446 46.89376679 -14.4375 47.30859375 C-16.31242319 47.3256147 -18.18755365 47.32674338 -20.0625 47.3125 C-20.99578125 47.33248047 -21.9290625 47.35246094 -22.890625 47.37304688 C-32.23719621 47.36651994 -39.51214703 44.31195788 -46.33203125 37.9140625 C-51.30160896 32.05826213 -52.82742527 25.03398388 -52.5078125 17.48046875 C-51.39613428 10.97617599 -47.11348672 6.23714203 -42.09765625 2.19140625 C-29.18372972 -6.16174777 -13.74502343 -6.12034776 0 0 Z " fill="#0D2238" transform="translate(169.0625,30.125)"/>
<path d="M0 0 C7.46238296 1.00599529 13.53440856 2.4778258 18.28125 8.671875 C20.54776104 12.33067139 21.58469229 15.74309602 22 20 C19.36 20 16.72 20 14 20 C14.928125 20.433125 15.85625 20.86625 16.8125 21.3125 C20.88042321 23.46610641 22.54464728 24.63394185 24 29 C25.07829973 43.97839883 24.18633838 57.8367298 16.25 70.875 C10.54059203 76.26721864 3.82229318 76.48938505 -3.66552734 76.41723633 C-15.16606035 75.99886716 -35.43428646 71.56571354 -44 63 C-44.90062319 54.35401735 -44.13241779 48.09373458 -39 41 C-31.92874418 40.68286489 -25.47292127 41.87950117 -18.5625 43.3125 C-17.48162109 43.52583984 -16.40074219 43.73917969 -15.28710938 43.95898438 C2.11446076 47.49417297 2.11446076 47.49417297 8 53 C7.40072174 49.64404172 6.15377564 47.62198774 4 45 C5.4391134 45.28359887 6.87625518 45.57721399 8.3125 45.875 C9.11300781 46.03742188 9.91351563 46.19984375 10.73828125 46.3671875 C13 47 13 47 16 49 C15.82984375 48.29746094 15.6596875 47.59492188 15.484375 46.87109375 C14.96902889 43.81642125 15.0751586 41.15004013 15.25 38.0625 C15.27391787 34.18302087 15.26972959 31.43307556 12.9375 28.25 C10.15066409 25.73672406 10.15066409 25.73672406 6.5625 25.5 C3.14845499 25.97916421 0.20637257 26.74873266 -3 28 C-2.63345617 22.31225095 -1.89536566 18.03541854 1 13 C1 12.67 1 12.34 1 12 C-0.1254191 13.60387267 -1.25031972 15.20810916 -2.375 16.8125 C-3.00148437 17.70582031 -3.62796875 18.59914063 -4.2734375 19.51953125 C-5.53550239 21.33267878 -6.77458808 23.16188211 -8 25 C-8.4747716 16.5772001 -7.8442089 9.14784005 -2.3125 2.4375 C-1.549375 1.633125 -0.78625 0.82875 0 0 Z " fill="#F2EDE2" transform="translate(191,86)"/>
<path d="M0 0 C5.38044716 4.66737585 6.29473279 12.2846296 7 19 C7.125 22.6875 7.125 22.6875 7 25 C3.98859877 23.49429938 3.4372818 20.89855171 2.09765625 17.91015625 C1.00610802 15.68264809 1.00610802 15.68264809 -2 14 C-1.74605469 14.53367187 -1.49210937 15.06734375 -1.23046875 15.6171875 C2.64475566 24.00625008 5.51830211 31.67056201 5 41 C0.38 41 -4.24 41 -9 41 C-6.36 41.66 -3.72 42.32 -1 43 C-1 43.66 -1 44.32 -1 45 C-2.79036458 45.9765625 -4.58072917 46.953125 -6.37109375 47.9296875 C-8.16618315 48.91410024 -8.16618315 48.91410024 -9 51 C-7.865625 50.505 -6.73125 50.01 -5.5625 49.5 C1.91178081 46.7546139 8.21843308 47.43586408 15.46484375 50.60546875 C19.15539936 52.63555866 22.26124218 55.18712748 25.46875 57.90234375 C28.82059612 60.68003104 32.37208362 63.10758854 35.96875 65.5546875 C38 67 38 67 40 69 C28.3861004 73.70957346 17.71920422 75.18219754 5.25 75.375 C4.26741211 75.40110352 3.28482422 75.42720703 2.27246094 75.45410156 C-3.95406988 75.46887137 -8.9574257 74.87325038 -14 71 C-18.08658255 66.81819739 -20.05929556 62.04887118 -21.3125 56.375 C-21.47274658 55.65787842 -21.63299316 54.94075684 -21.7980957 54.2019043 C-23.02174861 48.10183532 -23.51946296 42.02606396 -23.6875 35.8125 C-23.73108643 34.92804199 -23.77467285 34.04358398 -23.81958008 33.13232422 C-23.82633419 29.41898514 -23.81630603 26.98745497 -21.39306641 24.05615234 C-19.65846888 22.56041743 -17.92599261 21.23646666 -16 20 C-17.175625 20.2475 -17.175625 20.2475 -18.375 20.5 C-21 21 -21 21 -23 21 C-22.07079675 11.74589412 -18.62861716 6.89778288 -11.625 1 C-7.65907869 -0.51082716 -4.14984873 -1.14478586 0 0 Z " fill="#F1ECE2" transform="translate(107,86)"/>
<path d="M0 0 C9.27942734 6.38396693 13.58292128 14.74136545 15.765625 25.6796875 C16.75101316 36.543592 15.49463168 46.77364925 8.765625 55.6796875 C0.05432861 63.8911554 -11.46873522 65.15335654 -22.93530273 65.03125 C-32.99320147 64.70537815 -41.86364226 62.94991025 -49.234375 55.6796875 C-56.08492501 48.03076512 -57.98165785 37.94219409 -57.6171875 27.8828125 C-56.25258495 16.46470951 -51.18879329 7.13708381 -42.1796875 0 C-29.66299946 -8.49526216 -12.74246131 -7.52963623 0 0 Z M-48.484375 20.1796875 C-52.77831309 25.258539 -53.70233921 29.13015478 -53.53515625 35.73828125 C-52.66900983 44.20851827 -49.1663567 49.46176919 -42.84375 54.98828125 C-35.86185377 59.51397147 -29.5516823 60.20512258 -21.421875 60.1171875 C-20.44790771 60.10961426 -19.47394043 60.10204102 -18.47045898 60.09423828 C-8.98945999 59.87672227 -0.694024 58.22067559 6.328125 51.41796875 C11.70851419 44.91179161 12.4206792 38.20631356 12.14453125 29.921875 C11.35999159 23.20880365 7.93791848 19.18867411 2.7578125 15.03125 C-12.79524885 4.47956524 -35.78826276 5.90036702 -48.484375 20.1796875 Z " fill="#EFEBE1" transform="translate(170.234375,17.3203125)"/>
<path d="M0 0 C0.99 0 1.98 0 3 0 C2.67 1.32 2.34 2.64 2 4 C2.66 4 3.32 4 4 4 C3.71125 4.845625 3.4225 5.69125 3.125 6.5625 C2.75375 7.696875 2.3825 8.83125 2 10 C1.62875 11.134375 1.2575 12.26875 0.875 13.4375 C-0.02369149 17.09645822 -0.15313186 20.24826939 0 24 C0.54269531 23.2059375 1.08539063 22.411875 1.64453125 21.59375 C2.35996094 20.5728125 3.07539063 19.551875 3.8125 18.5 C4.52019531 17.4790625 5.22789062 16.458125 5.95703125 15.40625 C6.63121094 14.6121875 7.30539063 13.818125 8 13 C8.99 13 9.98 13 11 13 C10.38125 13.70125 9.7625 14.4025 9.125 15.125 C5.85663121 19.54691072 4.67774614 23.5216844 5 29 C5.680625 28.67 6.36125 28.34 7.0625 28 C10.76552288 26.73939647 13.11028778 26.38583491 17 27 C20.18075442 28.72988398 21.64394285 30.65603112 23 34 C23.7147494 39.64087384 23.34363034 45.34282645 23 51 C17.555 49.515 17.555 49.515 12 48 C12.639375 48.721875 13.27875 49.44375 13.9375 50.1875 C15.98673535 52.98191184 16.61332946 54.61663274 17 58 C16.39865234 57.40251953 16.39865234 57.40251953 15.78515625 56.79296875 C6.94006056 48.54958025 -4.49997306 47.86165763 -16 46 C-15.34 45.34 -14.68 44.68 -14 44 C-14.495 42.515 -14.495 42.515 -15 41 C-15.02172852 39.09887695 -15.02172852 39.09887695 -14.87890625 36.98828125 C-14.83056641 36.23095703 -14.78222656 35.47363281 -14.73242188 34.69335938 C-14.64831055 33.51483398 -14.64831055 33.51483398 -14.5625 32.3125 C-14.48418945 31.11657227 -14.48418945 31.11657227 -14.40429688 29.89648438 C-14.27480978 27.93063478 -14.13809959 25.96526335 -14 24 C-13.67 24 -13.34 24 -13 24 C-12.67 28.62 -12.34 33.24 -12 38 C-11.13758955 34.55035819 -10.77366572 31.38469823 -10.50610352 27.85595703 C-9.64801285 17.41387007 -7.17070306 8.05065879 0 0 Z " fill="#1A2C3F" transform="translate(184,84)"/>
<path d="M0 0 C5.69705751 4.43104473 7.42639867 10.09975815 9 17 C9.56156176 21.66564228 9.86105933 26.30380542 10 31 C10.33 31 10.66 31 11 31 C11.144375 32.11375 11.28875 33.2275 11.4375 34.375 C11.78372035 37.82142047 11.78372035 37.82142047 13 40 C14.89533342 40.46523063 14.89533342 40.46523063 17.0625 40.625 C18.361875 40.74875 19.66125 40.8725 21 41 C20.525625 41.86625 20.05125 42.7325 19.5625 43.625 C18.06765105 46.85387374 17.41781687 49.49033826 17 53 C15.68 53 14.36 53 13 53 C13.33 54.32 13.66 55.64 14 57 C12.85724609 56.45859375 12.85724609 56.45859375 11.69140625 55.90625 C0.81213086 51.01668803 -5.85265489 51.09028397 -17 55 C-14.78071806 52.09197539 -13.07030857 50.04687238 -10 48 C-9.01 48 -8.02 48 -7 48 C-7 47.34 -7 46.68 -7 46 C-10.3 45.67 -13.6 45.34 -17 45 C-15 43 -15 43 -12.25 42.76953125 C-11.1775 42.78371094 -10.105 42.79789063 -9 42.8125 C-7.9275 42.81894531 -6.855 42.82539062 -5.75 42.83203125 C-3 43 -3 43 -1 44 C-2.00753117 35.78937283 -4.00788378 28.62985044 -6.9765625 20.93359375 C-8 18 -8 18 -8 15 C-7.03328244 16.05487733 -6.07701255 17.11933281 -5.125 18.1875 C-4.59132813 18.77917969 -4.05765625 19.37085937 -3.5078125 19.98046875 C-1.83874553 22.21598073 -0.9317829 24.38105679 0 27 C-0.34417454 20.65057309 -1.04761518 14.9476294 -3.28125 8.97265625 C-3.99955715 7.00121543 -4.5248502 5.0422304 -5 3 C-4.34 3 -3.68 3 -3 3 C-3 2.34 -3 1.68 -3 1 C-2.01 0.67 -1.02 0.34 0 0 Z " fill="#15273B" transform="translate(113,83)"/>
<path d="M0 0 C3.06254483 1.83951556 5.1795625 3.66195312 7.40625 6.4453125 C6.74625 7.4353125 6.08625 8.4253125 5.40625 9.4453125 C4.75398438 9.09597656 4.10171875 8.74664062 3.4296875 8.38671875 C2.55570313 7.93167969 1.68171875 7.47664063 0.78125 7.0078125 C-0.07726562 6.55535156 -0.93578125 6.10289063 -1.8203125 5.63671875 C-10.47441906 1.91910959 -21.80219912 2.12849243 -30.59375 5.1953125 C-38.6187007 8.56061441 -45.16741939 13.16754031 -48.59375 21.4453125 C-49.62982337 28.98696281 -48.52351069 35.90315408 -44.59375 42.4453125 C-39.32619002 49.05508728 -32.55375824 51.30937696 -24.59375 53.4453125 C-26.79485648 55.93725587 -27.31515598 56.4070741 -30.78125 56.8828125 C-38.19801244 56.03170861 -43.36990986 52.68258064 -48.05078125 46.8984375 C-53.88767788 37.6185107 -55.29496131 26.00841191 -52.91015625 15.40625 C-52.21568526 13.04704232 -51.46553298 10.7441212 -50.59375 8.4453125 C-49.93375 8.4453125 -49.27375 8.4453125 -48.59375 8.4453125 C-48.59375 9.1053125 -48.59375 9.7653125 -48.59375 10.4453125 C-48.1090625 9.99800781 -47.624375 9.55070312 -47.125 9.08984375 C-33.47611271 -3.22040267 -17.379739 -8.35564375 0 0 Z " fill="#EBE9DF" transform="translate(166.59375,23.5546875)"/>
<path d="M0 0 C3.4812511 2.32083406 4.99212405 4.09421919 6.8125 7.875 C7.65449201 12.6691994 7.27922616 15.95821646 5.0625 20.3125 C2.27582906 23.48620857 0.38828995 24.67303586 -3.80859375 25.2109375 C-11.3870791 25.31604825 -11.3870791 25.31604825 -15.25 23.1875 C-18.9374272 18.78637721 -19.69649552 14.73729338 -19.57421875 9.09375 C-18.79225104 4.60730898 -15.91324325 2.14054505 -12.3125 -0.5 C-7.92422853 -1.79066808 -4.28345394 -1.51180727 0 0 Z " fill="#ECE8DE" transform="translate(111.1875,202.125)"/>
<path d="M0 0 C3.4812511 2.32083406 4.99212405 4.09421919 6.8125 7.875 C7.65449201 12.6691994 7.27922616 15.95821646 5.0625 20.3125 C2.27694698 23.48493539 0.3742103 24.65389347 -3.80859375 25.24609375 C-11.43756533 25.42597241 -11.43756533 25.42597241 -15.25 22.625 C-15.889375 21.7175 -16.52875 20.81 -17.1875 19.875 C-17.620625 19.276875 -18.05375 18.67875 -18.5 18.0625 C-20.09438224 12.9894656 -19.86056218 9.19619614 -17.5 4.5625 C-12.40649957 -1.35697347 -7.4691903 -2.63618481 0 0 Z " fill="#EEEADF" transform="translate(159.1875,202.125)"/>
<path d="M0 0 C4.36350222 2.22291622 7.09544338 4.45022584 9 9 C9.57057837 14.23030176 8.84948106 17.57839146 6 22 C3.78218615 24.47873312 2.19297407 25.78389749 -1.11328125 26.3828125 C-6.52368358 26.65560589 -9.82396442 25.66676295 -14 22 C-16.71728226 17.57148809 -16.91323966 13.04603609 -16 8 C-12.11831366 1.3797006 -7.70604976 -1.03321338 0 0 Z " fill="#E8E5DB" transform="translate(128,171)"/>
<path d="M0 0 C5.13959507 1.81397473 7.63292134 4.08375972 10 9 C10.73989606 12.8585234 10.926834 16.33382132 8.9765625 19.83984375 C6.5284469 22.87402339 3.89607192 25.72659637 -0.0859375 26.30078125 C-4.84246349 26.32513207 -8.27165868 26.28971293 -12 23 C-14.82593174 18.90727127 -15.63670453 15.14219869 -15.49609375 10.25390625 C-14.61580235 6.25447212 -12.02579848 3.63385567 -9 1 C-5.92805092 -0.53597454 -3.39755707 -0.2265038 0 0 Z " fill="#E9E5DB" transform="translate(208,171)"/>
<path d="M0 0 C2.64 0 5.28 0 8 0 C8.64834654 1.269553 9.29357815 2.54069706 9.9375 3.8125 C10.29714844 4.52019531 10.65679687 5.22789062 11.02734375 5.95703125 C12 8 12 8 13 11 C14.65 7.37 16.3 3.74 18 0 C20.64 0 23.28 0 26 0 C26.79681084 8.02502344 27.12867289 15.93649887 27 24 C25.02 24 23.04 24 21 24 C20.34 20.37 19.68 16.74 19 13 C18.01 15.31 17.02 17.62 16 20 C14.02 20 12.04 20 10 20 C9.01 17.36 8.02 14.72 7 12 C6.34 15.96 5.68 19.92 5 24 C3.02 24 1.04 24 -1 24 C-0.67 16.08 -0.34 8.16 0 0 Z " fill="#ECE8DE" transform="translate(163,172)"/>
<path d="M0 0 C1.10800209 0.00213753 1.10800209 0.00213753 2.23838806 0.00431824 C3.4946273 -0.00029671 3.4946273 -0.00029671 4.77624512 -0.00500488 C5.68148422 0.00218063 6.58672333 0.00936615 7.51939392 0.01676941 C8.44642624 0.01722763 9.37345856 0.01768585 10.32858276 0.01815796 C12.28974181 0.02118162 14.25089842 0.02907131 16.21202087 0.04142761 C19.22537169 0.05968444 22.23841545 0.06193734 25.2518158 0.06169128 C27.15351118 0.06660631 29.05520447 0.07243456 30.95689392 0.07926941 C31.86415726 0.08038223 32.77142059 0.08149506 33.70617676 0.0826416 C40.0556932 0.13119368 40.0556932 0.13119368 41.17173767 1.24723816 C41.25825378 2.66293939 41.27878671 4.08283316 41.26939392 5.50114441 C41.26617126 6.35514832 41.26294861 7.20915222 41.2596283 8.08903503 C41.24705994 9.43578308 41.24705994 9.43578308 41.23423767 10.80973816 C41.22972595 11.71143738 41.22521423 12.6131366 41.2205658 13.54216003 C41.20873992 15.7772513 41.19225987 18.01221253 41.17173767 20.24723816 C39.77560702 20.10427925 38.37984459 19.95772258 36.98423767 19.80973816 C36.20693298 19.72852722 35.4296283 19.64731628 34.62876892 19.56364441 C32.12532981 19.24126195 29.64683243 18.74225711 27.17173767 18.24723816 C26.67673767 11.81223816 26.67673767 11.81223816 26.17173767 5.24723816 C18.25173767 5.24723816 10.33173767 5.24723816 2.17173767 5.24723816 C1.84173767 8.87723816 1.51173767 12.50723816 1.17173767 16.24723816 C-0.47826233 16.24723816 -2.12826233 16.24723816 -3.82826233 16.24723816 C-3.88210754 13.95582529 -3.9209832 11.66405628 -3.95326233 9.37223816 C-3.97646545 8.09606628 -3.99966858 6.81989441 -4.02357483 5.50505066 C-3.82090148 2.12445925 -3.61231431 0.4884977 0 0 Z " fill="#F6F1E6" transform="translate(128.82826232910156,104.75276184082031)"/>
<path d="M0 0 C2.31 0 4.62 0 7 0 C9.43359375 2.625 9.43359375 2.625 11.4375 6 C12.11683594 7.11375 12.79617187 8.2275 13.49609375 9.375 C13.99238281 10.24125 14.48867187 11.1075 15 12 C15.33 8.04 15.66 4.08 16 0 C18.31 0 20.62 0 23 0 C23 8.25 23 16.5 23 25 C20.69 25 18.38 25 16 25 C13.56640625 22.375 13.56640625 22.375 11.5625 19 C10.88316406 17.88625 10.20382813 16.7725 9.50390625 15.625 C9.00761719 14.75875 8.51132813 13.8925 8 13 C7.67 16.96 7.34 20.92 7 25 C4.69 25 2.38 25 0 25 C0 16.75 0 8.5 0 0 Z " fill="#EDE9DF" transform="translate(169,202)"/>
<path d="M0 0 C1.155 0.391875 2.31 0.78375 3.5 1.1875 C7.98947353 2.67925544 12.49056043 4.13243288 17 5.5625 C17.65162109 5.77221436 18.30324219 5.98192871 18.97460938 6.19799805 C27.37149587 8.84343505 35.17128075 10.34645661 44 10.3125 C44.83789062 10.32861328 45.67578125 10.34472656 46.5390625 10.36132812 C52.5249066 10.36596113 57.44863983 9.21501282 63 7 C61.64319732 11.44044513 59.86646942 13.45164515 56 16 C42.40981362 21.47137374 27.02456218 17.40205491 14.09375 11.98828125 C1.57552128 6.57552128 1.57552128 6.57552128 0 5 C-0.04063832 3.33382885 -0.042721 1.66611905 0 0 Z " fill="#AEB5B9" transform="translate(147,144)"/>
<path d="M0 0 C1.50191475 1.05156893 2.98944731 2.12541628 4.4375 3.25 C-3.52691267 11.21441267 -19.89922099 10.47116186 -30.3125 10.625 C-31.78614014 10.66403442 -31.78614014 10.66403442 -33.28955078 10.70385742 C-39.48554786 10.71907713 -44.47677009 10.00138599 -49.5625 6.25 C-51.23128799 4.31693775 -52.32939117 2.51069951 -53.5625 0.25 C-53.005625 0.53875 -52.44875 0.8275 -51.875 1.125 C-40.2417911 6.78439892 -26.69265806 4.69367176 -14.5625 1.25 C-12.9384383 0.4342948 -11.33050479 -0.4153066 -9.75 -1.3125 C-5.68240442 -3.4006359 -3.82166727 -2.2791228 0 0 Z " fill="#AEB5B9" transform="translate(142.5625,150.75)"/>
<path d="M0 0 C1.17755859 0.13535156 1.17755859 0.13535156 2.37890625 0.2734375 C4.4375 0.625 4.4375 0.625 6.4375 1.625 C5.7775 3.275 5.1175 4.925 4.4375 6.625 C1.4675 6.295 -1.5025 5.965 -4.5625 5.625 C-4.2325 6.615 -3.9025 7.605 -3.5625 8.625 C-1.79394489 9.53597994 -1.79394489 9.53597994 0.3125 10.125 C3.44632423 11.09636987 5.36445199 12.02890603 7.4375 14.625 C7.9585865 18.12372367 7.87883644 19.91502398 6 22.9375 C2.29702716 25.37604309 -1.17292004 25.72355706 -5.5625 25.625 C-9.125 24.6875 -9.125 24.6875 -11.5625 23.625 C-11.2325 21.975 -10.9025 20.325 -10.5625 18.625 C-6.9325 18.955 -3.3025 19.285 0.4375 19.625 C0.1075 18.635 -0.2225 17.645 -0.5625 16.625 C-2.33105511 15.71402006 -2.33105511 15.71402006 -4.4375 15.125 C-7.57132423 14.15363013 -9.48945199 13.22109397 -11.5625 10.625 C-12 7.6875 -12 7.6875 -11.5625 4.625 C-8.19865738 0.33320079 -5.30145864 -0.64630632 0 0 Z " fill="#EBE7DD" transform="translate(151.5625,171.375)"/>
<path d="M0 0 C5.61 0 11.22 0 17 0 C17 1.65 17 3.3 17 5 C13.37 5 9.74 5 6 5 C6 6.65 6 8.3 6 10 C9.3 10 12.6 10 16 10 C16 11.65 16 13.3 16 15 C12.7 15 9.4 15 6 15 C6 16.65 6 18.3 6 20 C9.96 20 13.92 20 18 20 C18 21.65 18 23.3 18 25 C12.06 25 6.12 25 0 25 C0 16.75 0 8.5 0 0 Z " fill="#F3EFE4" transform="translate(197,202)"/>
<path d="M0 0 C3.18075442 1.72988398 4.64394285 3.65603112 6 7 C6.7147494 12.64087384 6.34363034 18.34282645 6 24 C2.37 23.01 -1.26 22.02 -5 21 C-4.360625 21.721875 -3.72125 22.44375 -3.0625 23.1875 C-1.01326465 25.98191184 -0.38667054 27.61663274 0 31 C-0.40089844 30.60167969 -0.80179688 30.20335937 -1.21484375 29.79296875 C-7.62836321 23.81574313 -14.42411792 21.91232788 -23 21 C-23.33 19.68 -23.66 18.36 -24 17 C-20.48458326 16.9282568 -17.2712822 16.94680741 -13.8125 17.625 C-8.3618195 18.16113251 -3.342425 17.06146704 2 16 C2 15.67 2 15.34 2 15 C-2.95 15 -7.9 15 -13 15 C-9.42530375 11.42530375 -4.97105579 11.03082717 -0.0625 10.875 C1.4534375 10.936875 1.4534375 10.936875 3 11 C2.67 10.34 2.34 9.68 2 9 C-3.92594523 8.56902217 -7.69476539 9.3979461 -13.01953125 12.02734375 C-15 13 -15 13 -18 14 C-18 13.34 -18 12.68 -18 12 C-6.47835991 5.48063781 -6.47835991 5.48063781 -1 4 C-4.3 4.33 -7.6 4.66 -11 5 C-11.33 4.01 -11.66 3.02 -12 2 C-7.85017102 -0.01203829 -4.58618755 -0.72413488 0 0 Z " fill="#1D2C3E" transform="translate(201,111)"/>
<path d="M0 0 C1.2375 0.7425 1.2375 0.7425 2.5 1.5 C1.75 3.4375 1.75 3.4375 0.5 5.5 C-1.5625 6.3125 -1.5625 6.3125 -3.5 6.5 C-3.83 6.17 -4.16 5.84 -4.5 5.5 C-6.83297433 5.45907063 -9.16705225 5.45758277 -11.5 5.5 C-11.55391993 7.29133978 -11.59275571 9.08313899 -11.625 10.875 C-11.64820312 11.87273437 -11.67140625 12.87046875 -11.6953125 13.8984375 C-11.77216848 16.66262173 -11.77216848 16.66262173 -9.5 18.5 C-7.1568787 18.24438677 -4.82156597 17.90729228 -2.5 17.5 C-1.51 17.5 -0.52 17.5 0.5 17.5 C1.16 18.82 1.82 20.14 2.5 21.5 C-1.63495737 25.1996987 -5.19142661 25.19440453 -10.5703125 25.0234375 C-13.67773571 24.46824455 -15.01715374 23.94011236 -17.25 21.75 C-20.64644561 16.82615873 -20.45874671 11.21998035 -19.5 5.5 C-15.18875785 -2.1986467 -7.77023357 -3.3301001 0 0 Z " fill="#EBE8DE" transform="translate(87.5,202.5)"/>
<path d="M0 0 C2.99061672 1.12148127 5.76469487 2.41301745 8.5625 3.9375 C23.60455152 11.44446777 39.50974465 10.07160034 55 5 C58.4602893 3.52478005 61.75598446 1.90273988 65 0 C65.29296875 2.30078125 65.29296875 2.30078125 65 5 C62.98828125 6.73046875 62.98828125 6.73046875 60.3125 8.1875 C59.44238281 8.67605469 58.57226562 9.16460937 57.67578125 9.66796875 C45.64538108 15.65682489 29.47542077 15.78300928 16.3671875 13.31640625 C13.7224387 12.40845118 11.42798869 11.38136878 9 10 C7.69095703 9.27683594 7.69095703 9.27683594 6.35546875 8.5390625 C1.81101235 5.78865417 1.81101235 5.78865417 0 4 C0 2.68 0 1.36 0 0 Z " fill="#D65E34" transform="translate(117,76)"/>
<path d="M0 0 C3.5 1.5 3.5 1.5 6 3 C5.1875 4.9375 5.1875 4.9375 4 7 C1 8 1 8 -2.5625 7.4375 C-3.696875 7.293125 -4.83125 7.14875 -6 7 C-8.15705515 8.7564331 -8.15705515 8.7564331 -8.265625 10.875 C-8.26046875 11.57625 -8.2553125 12.2775 -8.25 13 C-8.25515625 13.70125 -8.2603125 14.4025 -8.265625 15.125 C-8.15705515 17.2435669 -8.15705515 17.2435669 -6 19 C-3.84437356 18.94620814 -3.84437356 18.94620814 -1.5 18.5 C0.90625 18.09375 0.90625 18.09375 3 18 C3.66 18.66 4.32 19.32 5 20 C4.9375 22 4.9375 22 4 24 C0.08925084 26.30044068 -3.55147005 26.61359034 -8 26 C-11.81887376 23.59804964 -14.55904471 21.32286587 -16 17 C-16.61600642 12.97646441 -16.88041726 9.46284714 -14.73046875 5.890625 C-10.28678268 0.65767109 -6.9982695 -0.7775855 0 0 Z " fill="#E7E4DB" transform="translate(104,171)"/>
<path d="M0 0 C0.5878125 0.2165625 1.175625 0.433125 1.78125 0.65625 C9.30435809 2.99100768 16.4096295 3.30296763 24.25 3.3125 C25.79397461 3.32023437 25.79397461 3.32023437 27.36914062 3.328125 C33.27872287 3.27464462 38.31844642 2.58452217 44 1 C45.32 1 46.64 1 48 1 C46.125 7.875 46.125 7.875 45 9 C43.64905018 9.09268999 42.29332909 9.11747326 40.93920898 9.11352539 C40.07839218 9.11344986 39.21757538 9.11337433 38.33067322 9.11329651 C37.39526199 9.10813522 36.45985077 9.10297394 35.49609375 9.09765625 C34.54307877 9.0962413 33.59006378 9.09482635 32.60816956 9.09336853 C29.55124835 9.08775152 26.49439923 9.07519616 23.4375 9.0625 C21.37044376 9.05748719 19.30338638 9.05292391 17.23632812 9.04882812 C12.15752412 9.03777656 7.0787743 9.02050055 2 9 C0 3.375 0 3.375 0 0 Z " fill="#E0DED6" transform="translate(125,92)"/>
<path d="M0 0 C-0.309375 1.216875 -0.61875 2.43375 -0.9375 3.6875 C-1.83821797 7.67459422 -2.24071911 11.54721874 -2.5 15.625 C-2.80742578 20.39289439 -3.42904381 24.49659225 -5 29 C-5.33 29 -5.66 29 -6 29 C-6.06058594 27.79601562 -6.12117188 26.59203125 -6.18359375 25.3515625 C-6.26799732 23.77602923 -6.35264541 22.20050904 -6.4375 20.625 C-6.47681641 19.8309375 -6.51613281 19.036875 -6.55664062 18.21875 C-6.68893404 13.97398779 -6.68893404 13.97398779 -8 10 C-27.8 9.505 -27.8 9.505 -48 9 C-48.66 7.68 -49.32 6.36 -50 5 C-48.70787598 4.98541748 -47.41575195 4.97083496 -46.08447266 4.95581055 C-41.30212367 4.89794978 -36.52025161 4.82071683 -31.73828125 4.73754883 C-29.66641973 4.70424177 -27.59446621 4.67622803 -25.52246094 4.65356445 C-22.54842827 4.62012437 -19.57524321 4.56781495 -16.6015625 4.51171875 C-15.67131256 4.50532883 -14.74106262 4.4989389 -13.78262329 4.49235535 C-12.49151138 4.46266411 -12.49151138 4.46266411 -11.17431641 4.43237305 C-10.41486725 4.42126999 -9.65541809 4.41016693 -8.87295532 4.39872742 C-6.589281 4.14042752 -6.589281 4.14042752 -5 1 C-3 0 -3 0 0 0 Z " fill="#15273B" transform="translate(177,96)"/>
<path d="M0 0 C0.33 0 0.66 0 1 0 C4.17102748 15.22475242 4.17102748 15.22475242 0.6875 22.125 C-4.52955485 29.96824724 -11.46584316 33.56086017 -20.53125 35.53515625 C-24.70366682 36.09429769 -28.79365328 36.28112273 -33 36.3125 C-33.73025391 36.31813965 -34.46050781 36.3237793 -35.21289062 36.32958984 C-38.95037711 36.27830805 -41.8284686 36.07305829 -45 34 C-40.47944639 30.60508225 -36.78924531 30.61440815 -31.375 30.5625 C-22.63175234 30.26976521 -14.85837868 29.01869491 -7.5625 23.8125 C-1.17936149 16.80661627 -0.31213929 9.22371604 0 0 Z " fill="#EAE6DD" transform="translate(182,46)"/>
<path d="M0 0 C2.31 0 4.62 0 7 0 C7 6.27 7 12.54 7 19 C10.3 19 13.6 19 17 19 C17 20.98 17 22.96 17 25 C11.39 25 5.78 25 0 25 C0 16.75 0 8.5 0 0 Z " fill="#EAE7DD" transform="translate(219,202)"/>
<path d="M0 0 C0.33 0.66 0.66 1.32 1 2 C0.26394531 2.25394531 -0.47210938 2.50789063 -1.23046875 2.76953125 C-2.20628906 3.11371094 -3.18210938 3.45789063 -4.1875 3.8125 C-5.15042969 4.14894531 -6.11335938 4.48539062 -7.10546875 4.83203125 C-9.94950298 5.97962401 -12.41871912 7.35307674 -15 9 C-14.195625 8.566875 -14.195625 8.566875 -13.375 8.125 C-7.6802851 5.42750347 -3.21755483 4.78560156 3 5 C3.33 5.99 3.66 6.98 4 8 C-2.93 9.485 -2.93 9.485 -10 11 C-5.71 11 -1.42 11 3 11 C3 11.99 3 12.98 3 14 C-7.21980647 15.96480373 -14.90098178 16.16765158 -25 13 C-25 12.34 -25 11.68 -25 11 C-18.06937446 5.01311922 -9.4010634 -0.41597626 0 0 Z " fill="#E4E2D9" transform="translate(200,114)"/>
<path d="M0 0 C0.1079859 2.43868168 0.18726589 4.87259133 0.25 7.3125 C0.30027344 8.34793945 0.30027344 8.34793945 0.3515625 9.40429688 C0.390625 11.42578125 0.390625 11.42578125 0 15 C-2.015625 16.98046875 -2.015625 16.98046875 -4 18 C-4.66 16.68 -5.32 15.36 -6 14 C-6.61488281 14.10699219 -7.22976562 14.21398437 -7.86328125 14.32421875 C-8.67152344 14.44410156 -9.47976562 14.56398437 -10.3125 14.6875 C-11.11300781 14.81511719 -11.91351563 14.94273437 -12.73828125 15.07421875 C-15 15 -15 15 -16.76953125 13.76953125 C-18.90058705 10.70487006 -18.52883126 7.58264555 -18 4 C-16.9375 1.9375 -16.9375 1.9375 -15 1 C-11.42556076 1.25531709 -8.39634923 1.86788359 -5 3 C-4.54625 2.505 -4.0925 2.01 -3.625 1.5 C-2 0 -2 0 0 0 Z " fill="#0E2238" transform="translate(113,176)"/>
<path d="M0 0 C3.65409572 1.6609526 5.94545919 3.53972074 8 7 C8 7.99 8 8.98 8 10 C0.90215087 11.81774185 -5.65081658 13.43230491 -13 13 C-13.75 10.875 -13.75 10.875 -14 8 C-10.4039192 1.44999568 -7.50370468 -0.64687109 0 0 Z " fill="#DA6035" transform="translate(216,59)"/>
<path d="M0 0 C1.98 0 3.96 0 6 0 C6 6.6 6 13.2 6 20 C9.3 20 12.6 20 16 20 C16 21.65 16 23.3 16 25 C10.72 25 5.44 25 0 25 C0 16.75 0 8.5 0 0 Z " fill="#F7F3E8" transform="translate(122,202)"/>
<path d="M0 0 C3.5625 0.25 3.5625 0.25 6.5625 2.25 C5.94375 3.343125 5.325 4.43625 4.6875 5.5625 C2.14620438 10.58200943 1.33503012 15.72031075 0.5625 21.25 C-3.41207902 19.72028807 -6.46548576 18.39184362 -9.4375 15.25 C-10.16997245 10.85516529 -9.76265971 8.82444883 -7.5625 4.9375 C-3.88164536 0.28230148 -3.88164536 0.28230148 0 0 Z " fill="#EFEBE0" transform="translate(142.4375,124.75)"/>
<path d="M0 0 C5.57676614 4.33748478 7.9901092 10.07616338 9 17 C9.45344188 24.32513551 9.25437745 31.6700159 9 39 C7.68 39 6.36 39 5 39 C4.96132812 37.7625 4.96132812 37.7625 4.921875 36.5 C4.58362384 29.61197632 3.79247176 23.1824009 2.125 16.5 C1.96354492 15.84257813 1.80208984 15.18515625 1.63574219 14.5078125 C0.54875863 10.37094305 -1.04857604 6.79133797 -3 3 C-3 2.34 -3 1.68 -3 1 C-2.01 0.67 -1.02 0.34 0 0 Z " fill="#EAE7DD" transform="translate(113,83)"/>
<path d="M0 0 C0.99 0 1.98 0 3 0 C2.71253906 0.7115625 2.42507812 1.423125 2.12890625 2.15625 C1.02947535 4.92575067 -0.03003207 7.70487768 -1.0625 10.5 C-1.40410156 11.4178125 -1.74570313 12.335625 -2.09765625 13.28125 C-3.75479434 18.27418553 -4.21957592 23.07066055 -4.5625 28.3125 C-4.64628906 29.56675781 -4.73007813 30.82101563 -4.81640625 32.11328125 C-4.87699219 33.06589844 -4.93757812 34.01851562 -5 35 C-6.65 35.66 -8.3 36.32 -10 37 C-10.47291933 22.88248213 -9.10263367 13.00839422 -1 1 C-0.67 0.67 -0.34 0.34 0 0 Z " fill="#F0ECE1" transform="translate(184,84)"/>
<path d="M0 0 C4.62 0 9.24 0 14 0 C14.02712351 2.39591038 14.0468982 4.79150957 14.0625 7.1875 C14.07087891 7.86103516 14.07925781 8.53457031 14.08789062 9.22851562 C14.10606538 12.95434131 13.89299392 16.3788042 13 20 C12.67 20 12.34 20 12 20 C12 18.35 12 16.7 12 15 C8.04 15 4.08 15 0 15 C0 13.35 0 11.7 0 10 C3.3 10 6.6 10 10 10 C10 8.35 10 6.7 10 5 C6.7 5 3.4 5 0 5 C0 3.35 0 1.7 0 0 Z " fill="#1F2F42" transform="translate(203,207)"/>
<path d="M0 0 C2.54312656 1.56120855 4.40711741 3.290719 6.41796875 5.484375 C4.81363066 5.00578259 3.20950459 4.52647942 1.60546875 4.046875 C0.71214844 3.78003906 -0.18117187 3.51320313 -1.1015625 3.23828125 C-2.9367618 2.68049627 -4.76236851 2.09092925 -6.58203125 1.484375 C-19.03643773 0.43150132 -31.24343236 0.30418755 -41.76953125 7.734375 C-42.36765625 8.311875 -42.96578125 8.889375 -43.58203125 9.484375 C-44.24203125 9.154375 -44.90203125 8.824375 -45.58203125 8.484375 C-34.17332149 -5.45514009 -15.75548537 -7.19996793 0 0 Z " fill="#2E3949" transform="translate(166.58203125,23.515625)"/>
<path d="M0 0 C3.14588944 -0.02683697 6.29155271 -0.04675902 9.4375 -0.0625 C10.33533203 -0.07087891 11.23316406 -0.07925781 12.15820312 -0.08789062 C13.01220703 -0.09111328 13.86621094 -0.09433594 14.74609375 -0.09765625 C15.93223267 -0.10551147 15.93223267 -0.10551147 17.14233398 -0.11352539 C19 0 19 0 20 1 C20.125 3.5 20.125 3.5 20 6 C19 7 19 7 16.27734375 7.09765625 C14.62412109 7.08025391 14.62412109 7.08025391 12.9375 7.0625 C11.28041016 7.04896484 11.28041016 7.04896484 9.58984375 7.03515625 C8.73519531 7.02355469 7.88054687 7.01195313 7 7 C7 7.66 7 8.32 7 9 C4.69 9 2.38 9 0 9 C0 6.03 0 3.06 0 0 Z " fill="#DAD8D1" transform="translate(133,112)"/>
<path d="M0 0 C3 0.4375 3 0.4375 4.875 1.4375 C6.68719102 4.65917292 6.63360845 7.89214037 6 11.4375 C4.375 14 4.375 14 2 15.4375 C-1.125 15.375 -1.125 15.375 -4 14.4375 C-6.47342266 10.72736601 -6.38503486 8.82689738 -6 4.4375 C-4.4369108 1.05080673 -3.7186535 0.54230363 0 0 Z " fill="#16283C" transform="translate(153,206.5625)"/>
<path d="M0 0 C2.48038907 3.7205836 2.46337203 5.59796571 2 10 C0.375 12.5 0.375 12.5 -2 14 C-5.125 13.9375 -5.125 13.9375 -8 13 C-10.54440716 9.18338925 -10.57622479 6.4703891 -10 2 C-7.76411593 -2.34024556 -4.18639275 -1.06562725 0 0 Z " fill="#16283C" transform="translate(109,208)"/>
<path d="M0 0 C1.859375 0.26953125 1.859375 0.26953125 4 1 C5.203125 2.63671875 5.203125 2.63671875 6.25 4.6875 C10.69185181 12.22109668 16.80353407 15.3822514 25.09375 17.5546875 C25.7228125 17.70164062 26.351875 17.84859375 27 18 C24.79889352 20.49194337 24.27859402 20.9617616 20.8125 21.4375 C12.99216991 20.54008507 8.31746787 16.98218151 3.41015625 10.95703125 C0.65788285 7.13739421 0 4.70185052 0 0 Z " fill="#ECE9DF" transform="translate(115,59)"/>
<path d="M0 0 C0.74168427 0.00444122 1.48336853 0.00888245 2.24752808 0.01345825 C3.50860886 0.01368484 3.50860886 0.01368484 4.79516602 0.01391602 C6.15773026 0.02939987 6.15773026 0.02939987 7.54782104 0.04519653 C8.47722504 0.04802643 9.40662903 0.05085632 10.36419678 0.05377197 C13.33959704 0.06498834 16.3146989 0.09009543 19.29000854 0.11550903 C21.30432712 0.12553696 23.31865041 0.13466313 25.33297729 0.14285278 C30.27710311 0.16493243 35.22100519 0.1994721 40.16500854 0.24050903 C40.16500854 0.57050903 40.16500854 0.90050903 40.16500854 1.24050903 C35.54500854 1.57050903 30.92500854 1.90050903 26.16500854 2.24050903 C26.16500854 2.57050903 26.16500854 2.90050903 26.16500854 3.24050903 C18.24500854 3.57050903 10.32500854 3.90050903 2.16500854 4.24050903 C1.83500854 8.20050903 1.50500854 12.16050903 1.16500854 16.24050903 C-0.48499146 16.24050903 -2.13499146 16.24050903 -3.83499146 16.24050903 C-3.88883667 13.94909617 -3.92771233 11.65732715 -3.95999146 9.36550903 C-3.98319458 8.08933716 -4.00639771 6.81316528 -4.03030396 5.49832153 C-3.82751338 2.11577478 -3.61849732 0.47426994 0 0 Z " fill="#E6E2DA" transform="translate(128.83499145507813,104.75949096679688)"/>
<path d="M0 0 C6.75 0.75 6.75 0.75 9 3 C8.91796875 4.98828125 8.91796875 4.98828125 8 7 C5.92578125 8.23046875 5.92578125 8.23046875 3.3125 9.1875 C2.46300781 9.51105469 1.61351562 9.83460937 0.73828125 10.16796875 C-5.55738236 12.08091647 -11.66350194 12.18277589 -18.1875 12.1875 C-19.08919922 12.19974609 -19.99089844 12.21199219 -20.91992188 12.22460938 C-22.21833008 12.22750977 -22.21833008 12.22750977 -23.54296875 12.23046875 C-24.7189563 12.23663208 -24.7189563 12.23663208 -25.91870117 12.24291992 C-28 12 -28 12 -31 10 C-30.67 8.35 -30.34 6.7 -30 5 C-28.02 4.67 -26.04 4.34 -24 4 C-24.66 5.32 -25.32 6.64 -26 8 C-17.37280829 10.50790457 -7.07078366 9.41124272 1.22265625 6.1171875 C3.33557384 5.05144938 3.33557384 5.05144938 4 2 C2.68 2 1.36 2 0 2 C0 1.34 0 0.68 0 0 Z " fill="#E96534" transform="translate(224,63)"/>
<path d="M0 0 C3.0625 0.3125 3.0625 0.3125 4.9375 1.3125 C6.74773932 4.53070324 6.60217465 7.71466898 6.0625 11.3125 C4.9375 13.3125 4.9375 13.3125 3.0625 14.3125 C0 14.625 0 14.625 -2.9375 14.3125 C-4.9375 12.3125 -4.9375 12.3125 -5.203125 10 C-5.19796875 9.113125 -5.1928125 8.22625 -5.1875 7.3125 C-5.19265625 6.425625 -5.1978125 5.53875 -5.203125 4.625 C-4.78088977 0.94906979 -3.57729598 0.3805634 0 0 Z " fill="#102439" transform="translate(204.9375,176.6875)"/>
<path d="M0 0 C3.0625 0.3125 3.0625 0.3125 4.9375 1.3125 C6.74773932 4.53070324 6.60217465 7.71466898 6.0625 11.3125 C4.9375 13.3125 4.9375 13.3125 3.0625 14.3125 C0 14.625 0 14.625 -2.9375 14.3125 C-4.9375 12.3125 -4.9375 12.3125 -5.203125 10 C-5.19796875 9.113125 -5.1928125 8.22625 -5.1875 7.3125 C-5.19265625 6.425625 -5.1978125 5.53875 -5.203125 4.625 C-4.78088977 0.94906979 -3.57729598 0.3805634 0 0 Z " fill="#102338" transform="translate(123.9375,176.6875)"/>
<path d="M0 0 C1.08667969 0.01804687 2.17335937 0.03609375 3.29296875 0.0546875 C4.54013672 0.08949219 4.54013672 0.08949219 5.8125 0.125 C5.338125 0.99125 4.86375 1.8575 4.375 2.75 C2.88015105 5.97887374 2.23031687 8.61533826 1.8125 12.125 C0.37318883 11.67238642 -1.06388999 11.21267021 -2.5 10.75 C-3.70076172 10.36714844 -3.70076172 10.36714844 -4.92578125 9.9765625 C-7.1875 9.125 -7.1875 9.125 -10.1875 7.125 C-9.875 4.75 -9.875 4.75 -9.1875 2.125 C-5.66070901 -0.22619399 -4.15870515 -0.08943452 0 0 Z " fill="#EAE7DD" transform="translate(128.1875,123.875)"/>
<path d="M0 0 C14.19 0 28.38 0 43 0 C39.63163902 3.36836098 38.48487844 3.35956739 33.91770935 3.4168396 C32.70354088 3.40773056 32.70354088 3.40773056 31.46484375 3.3984375 C30.63038223 3.40130768 29.79592072 3.40417786 28.93617249 3.40713501 C27.17350587 3.40917541 25.4108166 3.40364721 23.64819336 3.39111328 C20.94398664 3.37503856 18.24126995 3.39097257 15.53710938 3.41015625 C13.82551752 3.40817421 12.1139266 3.40433134 10.40234375 3.3984375 C9.18513893 3.40754654 9.18513893 3.40754654 7.94334412 3.4168396 C5.66772461 3.38818359 5.66772461 3.38818359 2 3 C1.34 2.01 0.68 1.02 0 0 Z " fill="#071B32" transform="translate(127,101)"/>
<path d="M0 0 C-0.57344937 2.86724686 -0.8614515 3.8614515 -3 6 C-7.43900788 7.30266213 -11.97546588 7.18356263 -16.5625 7.1875 C-17.69461914 7.20586914 -17.69461914 7.20586914 -18.84960938 7.22460938 C-22.71233893 7.23481923 -25.73128084 7.19359668 -29 5 C-24.43543964 1.55122106 -20.4343212 1.49922195 -14.9375 1.375 C-13.34233378 1.32374968 -11.74727015 1.26917548 -10.15234375 1.2109375 C-9.45101318 1.19337402 -8.74968262 1.17581055 -8.02709961 1.15771484 C-5.26945754 0.94316146 -2.76405366 0 0 0 Z " fill="#DEDDD5" transform="translate(166,75)"/>
<path d="M0 0 C0.33 0 0.66 0 1 0 C1 2.31 1 4.62 1 7 C1.66 7.33 2.32 7.66 3 8 C2.67 9.98 2.34 11.96 2 14 C2.66 14.33 3.32 14.66 4 15 C-1.75 20 -1.75 20 -4 20 C-4 20.66 -4 21.32 -4 22 C-2.68 22.33 -1.36 22.66 0 23 C-0.66 23 -1.32 23 -2 23 C-2 23.99 -2 24.98 -2 26 C-4.97 25.67 -7.94 25.34 -11 25 C-10.34 24.34 -9.68 23.68 -9 23 C-9.33 22.01 -9.66 21.02 -10 20 C-10.02172852 18.09887695 -10.02172852 18.09887695 -9.87890625 15.98828125 C-9.83056641 15.23095703 -9.78222656 14.47363281 -9.73242188 13.69335938 C-9.64831055 12.51483398 -9.64831055 12.51483398 -9.5625 11.3125 C-9.51029297 10.51521484 -9.45808594 9.71792969 -9.40429688 8.89648438 C-9.27480978 6.93063478 -9.13809959 4.96526335 -9 3 C-8.67 3 -8.34 3 -8 3 C-7.67 7.62 -7.34 12.24 -7 17 C-6.34 15.68 -5.68 14.36 -5 13 C-5 13.99 -5 14.98 -5 16 C-3.35 15.34 -1.7 14.68 0 14 C0 9.38 0 4.76 0 0 Z " fill="#263647" transform="translate(179,105)"/>
<path d="M0 0 C4.79645373 -0.09788681 9.26037685 0.31060027 14 1 C15.093125 0.979375 16.18625 0.95875 17.3125 0.9375 C20 1 20 1 22 3 C21.01 3.33 20.02 3.66 19 4 C19.639375 4.721875 20.27875 5.44375 20.9375 6.1875 C22.98673535 8.98191184 23.61332946 10.61663274 24 14 C23.59910156 13.60167969 23.19820312 13.20335937 22.78515625 12.79296875 C16.37163679 6.81574313 9.57588208 4.91232788 1 4 C0.67 2.68 0.34 1.36 0 0 Z " fill="#16273B" transform="translate(177,128)"/>
<path d="M0 0 C-0.66 2.31 -1.32 4.62 -2 7 C-6.95 6.67 -11.9 6.34 -17 6 C-17 5.67 -17 5.34 -17 5 C-21.29 4.67 -25.58 4.34 -30 4 C-30 3.67 -30 3.34 -30 3 C-28.7934375 2.95101562 -27.586875 2.90203125 -26.34375 2.8515625 C-24.72914694 2.77646468 -23.11456461 2.70091997 -21.5 2.625 C-20.70851562 2.5940625 -19.91703125 2.563125 -19.1015625 2.53125 C-15.15424405 2.33711958 -11.48511184 1.96787844 -7.65625 0.9609375 C-4 0 -4 0 0 0 Z " fill="#D9D7D0" transform="translate(173,93)"/>
<path d="M0 0 C-1.4564336 3.83968859 -3.28214217 5.31006462 -7 7 C-11.1289176 7.61494517 -12.7110806 7.16586114 -16.375 5.0625 C-17.24125 4.381875 -18.1075 3.70125 -19 3 C-19 2.67 -19 2.34 -19 2 C-16.39610703 1.66440045 -13.7919239 1.33143142 -11.1875 1 C-10.44951172 0.90460938 -9.71152344 0.80921875 -8.95117188 0.7109375 C-5.94569605 0.33015323 -3.03285559 0 0 0 Z " fill="#D75F35" transform="translate(223,75)"/>
<path d="M0 0 C0 0.66 0 1.32 0 2 C-0.721875 2.37125 -1.44375 2.7425 -2.1875 3.125 C-8.06417391 7.04278261 -10.46948945 13.32140849 -12 20 C-14.52494179 16.21258732 -14.52462826 14.49681366 -14 10 C-11.19715976 4.12967366 -6.79698836 0 0 0 Z " fill="#DFDDD6" transform="translate(138,34)"/>
<path d="M0 0 C5 5 5 5 5.59375 7.5 C5.26633166 16.23115578 5.26633166 16.23115578 2 20 C1.34 20 0.68 20 0 20 C0 13.4 0 6.8 0 0 Z " fill="#D37452" transform="translate(188,40)"/>
<path d="M0 0 C0.66 0 1.32 0 2 0 C2 7.26 2 14.52 2 22 C0.68 22 -0.64 22 -2 22 C-2 16.72 -2 11.44 -2 6 C-1.67 6 -1.34 6 -1 6 C-0.67 4.02 -0.34 2.04 0 0 Z " fill="#D8D7D0" transform="translate(120,100)"/>
<path d="M0 0 C0.99 0.33 1.98 0.66 3 1 C3 4.3 3 7.6 3 11 C5.31 11 7.62 11 10 11 C10 11.33 10 11.66 10 12 C4.12116651 14.61281488 -1.70731728 14.18328202 -8 14 C-6.8125 12.5 -6.8125 12.5 -5 11 C-3.35 11 -1.7 11 0 11 C0 7.37 0 3.74 0 0 Z " fill="#0A1D32" transform="translate(130,110)"/>
<path d="M0 0 C0.33 0 0.66 0 1 0 C4.00534094 15.60097366 4.00534094 15.60097366 0.625 21.5 C-0.8359375 23.59375 -0.8359375 23.59375 -2 25 C-2.33 24.01 -2.66 23.02 -3 22 C-3.99 22.99 -4.98 23.98 -6 25 C-6.66 24.67 -7.32 24.34 -8 24 C-7.1028125 22.9790625 -7.1028125 22.9790625 -6.1875 21.9375 C-0.95656463 14.91310108 -0.40846529 8.57777109 0 0 Z " fill="#EDEAE0" transform="translate(182,46)"/>
<path d="M0 0 C0.33 0.66 0.66 1.32 1 2 C-0.794375 2.061875 -0.794375 2.061875 -2.625 2.125 C-6.79368001 2.67292597 -9.07845422 3.98994914 -11.87890625 7.1015625 C-13.88844103 10.50446808 -13.98275187 14.11917144 -14 18 C-14.66 17.67 -15.32 17.34 -16 17 C-16.41813284 10.93707386 -16.13274522 7.80292012 -12 3 C-8.05062318 -0.20219742 -4.99834992 -0.29402058 0 0 Z " fill="#E3E0D8" transform="translate(156,201)"/>
<path d="M0 0 C0.66 0 1.32 0 2 0 C2 1.98 2 3.96 2 6 C2.66 6 3.32 6 4 6 C4.33 9.63 4.66 13.26 5 17 C3.68 17.33 2.36 17.66 1 18 C0.04380267 14.00204108 -0.1039592 10.29196078 -0.0625 6.1875 C-0.05347656 5.02605469 -0.04445313 3.86460938 -0.03515625 2.66796875 C-0.02355469 1.78753906 -0.01195313 0.90710937 0 0 Z " fill="#DCDAD2" transform="translate(113,42)"/>
<path d="M0 0 C0.33 0 0.66 0 1 0 C1.33 6.27 1.66 12.54 2 19 C0.68 18.34 -0.64 17.68 -2 17 C-2.05383848 14.54137599 -2.09359038 12.0839245 -2.125 9.625 C-2.14175781 8.92632812 -2.15851563 8.22765625 -2.17578125 7.5078125 C-2.19344267 5.67102514 -2.10303261 3.83398037 -2 2 C-1.34 1.34 -0.68 0.68 0 0 Z " fill="#D45D34" transform="translate(109,41)"/>
<path d="M0 0 C1.859375 0.1640625 1.859375 0.1640625 4 1 C5.265625 3.3984375 5.265625 3.3984375 6.25 6.375 C6.75273438 7.84066406 6.75273438 7.84066406 7.265625 9.3359375 C8 12 8 12 8 15 C7.34 15 6.68 15 6 15 C5.67 16.32 5.34 17.64 5 19 C4.80664062 18.13117188 4.61328125 17.26234375 4.4140625 16.3671875 C4.15367188 15.21476562 3.89328125 14.06234375 3.625 12.875 C3.36976562 11.73804687 3.11453125 10.60109375 2.8515625 9.4296875 C2.05363523 6.21601712 1.09209441 3.12433966 0 0 Z " fill="#19293C" transform="translate(108,86)"/>
<path d="M0 0 C6.75 0.75 6.75 0.75 9 3 C9 4.9375 9 4.9375 8 7 C5.125 8.8125 5.125 8.8125 2 10 C1.01 9.67 0.02 9.34 -1 9 C-1 8.34 -1 7.68 -1 7 C-0.360625 6.731875 0.27875 6.46375 0.9375 6.1875 C3.33131686 5.11332248 3.33131686 5.11332248 4 2 C2.68 2 1.36 2 0 2 C0 1.34 0 0.68 0 0 Z " fill="#CA5A34" transform="translate(224,63)"/>
<path d="M0 0 C0.99 0.33 1.98 0.66 3 1 C1.125 6.75 1.125 6.75 0 9 C-0.22950319 11.204364 -0.41075933 13.41392173 -0.5625 15.625 C-0.64628906 16.81351563 -0.73007813 18.00203125 -0.81640625 19.2265625 C-0.87699219 20.14179688 -0.93757812 21.05703125 -1 22 C-1.33 22 -1.66 22 -2 22 C-2.09087891 21.11248047 -2.09087891 21.11248047 -2.18359375 20.20703125 C-2.26738281 19.41683594 -2.35117188 18.62664062 -2.4375 17.8125 C-2.52257812 16.98492187 -2.60765625 16.15734375 -2.6953125 15.3046875 C-2.94161475 12.92516265 -2.94161475 12.92516265 -3.8125 10.4375 C-4.11947196 6.44686456 -1.95715391 3.38512029 0 0 Z " fill="#263546" transform="translate(148,127)"/>
<path d="M0 0 C5.61 0 11.22 0 17 0 C17.33 0.99 17.66 1.98 18 3 C15.56242587 3.02698422 13.12515085 3.04683099 10.6875 3.0625 C9.99720703 3.07087891 9.30691406 3.07925781 8.59570312 3.08789062 C5.4516975 3.10307906 3.00579981 3.00193327 0 2 C0 1.34 0 0.68 0 0 Z " fill="#15273B" transform="translate(140,20)"/>
<path d="M0 0 C0.33 0 0.66 0 1 0 C1.05454409 2.35448675 1.0939279 4.70767875 1.125 7.0625 C1.14820313 8.37347656 1.17140625 9.68445313 1.1953125 11.03515625 C0.99417522 15.11824299 0.27165462 18.14999053 -1 22 C-1.33 22 -1.66 22 -2 22 C-2.05401695 19.08308475 -2.09368066 16.16717276 -2.125 13.25 C-2.14175781 12.425 -2.15851563 11.6 -2.17578125 10.75 C-2.18222656 9.95078125 -2.18867188 9.1515625 -2.1953125 8.328125 C-2.20578613 7.5949707 -2.21625977 6.86181641 -2.22705078 6.10644531 C-1.96777544 3.70103924 -1.19225925 2.08748506 0 0 Z " fill="#071B32" transform="translate(173,103)"/>
<path d="M0 0 C-0.57344937 2.86724686 -0.8614515 3.8614515 -3 6 C-5.625 6.125 -5.625 6.125 -8 6 C-8.33 5.34 -8.66 4.68 -9 4 C-11.54941373 3.68758629 -14.00361513 3.48696579 -16.5625 3.375 C-17.27341797 3.33632812 -17.98433594 3.29765625 -18.71679688 3.2578125 C-20.47742425 3.16328217 -22.23867728 3.08054183 -24 3 C-24 2.67 -24 2.34 -24 2 C-22.74703125 1.93941406 -21.4940625 1.87882812 -20.203125 1.81640625 C-18.55207276 1.73197744 -16.90103165 1.64733061 -15.25 1.5625 C-14.425 1.52318359 -13.6 1.48386719 -12.75 1.44335938 C-11.95078125 1.40146484 -11.1515625 1.35957031 -10.328125 1.31640625 C-9.5949707 1.27974854 -8.86181641 1.24309082 -8.10644531 1.20532227 C-5.33090242 0.93478082 -2.78702084 0 0 0 Z " fill="#CAC8C4" transform="translate(166,75)"/>
<path d="M0 0 C1.65 0 3.3 0 5 0 C5 2.97 5 5.94 5 9 C3.35 9 1.7 9 0 9 C0 6.03 0 3.06 0 0 Z " fill="#243345" transform="translate(161,111)"/>
<path d="M0 0 C0.33 0.99 0.66 1.98 1 3 C-3.29 3.66 -7.58 4.32 -12 5 C-12 4.34 -12 3.68 -12 3 C-12.66 2.67 -13.32 2.34 -14 2 C-9.07262981 0.02905192 -5.21979128 -0.1799928 0 0 Z " fill="#DFDCD4" transform="translate(203,119)"/>
<path d="M0 0 C0.99 0.33 1.98 0.66 3 1 C2.71125 1.845625 2.4225 2.69125 2.125 3.5625 C0.99227296 7.02361041 -0.01824316 10.49372557 -1 14 C-1.66 14 -2.32 14 -3 14 C-3.66 14.99 -4.32 15.98 -5 17 C-4.46246904 10.81839396 -2.45417612 5.673142 0 0 Z " fill="#273546" transform="translate(185,87)"/>
<path d="M0 0 C0.99 0 1.98 0 3 0 C1.66666667 3.33333333 0.33333333 6.66666667 -1 10 C-1.99 9.67 -2.98 9.34 -4 9 C-4.33 10.32 -4.66 11.64 -5 13 C-5.66 13 -6.32 13 -7 13 C-5.68122033 8.0845485 -3.62482608 3.63558224 0 0 Z " fill="#E3E1D9" transform="translate(184,84)"/>
<path d="M0 0 C1.91302307 3.26613695 2.35674661 5.99445248 2.625 9.75 C2.69976562 10.73484375 2.77453125 11.7196875 2.8515625 12.734375 C2.92503906 13.85585938 2.92503906 13.85585938 3 15 C3.33 15 3.66 15 4 15 C4 17.31 4 19.62 4 22 C1.7522025 19.94766315 0.9977758 18.99332739 0 16 C-0.07051114 13.26134713 -0.09357765 10.54972412 -0.0625 7.8125 C-0.05798828 7.06291016 -0.05347656 6.31332031 -0.04882812 5.54101562 C-0.03706354 3.69397617 -0.01912865 1.84697787 0 0 Z " fill="#232E3F" transform="translate(110,40)"/>
<path d="M0 0 C0.598125 0.20625 1.19625 0.4125 1.8125 0.625 C0.8225 1.12 0.8225 1.12 -0.1875 1.625 C-0.1875 2.285 -0.1875 2.945 -0.1875 3.625 C1.1325 4.285 2.4525 4.945 3.8125 5.625 C3.1525 6.285 2.4925 6.945 1.8125 7.625 C-1.3125 7.25 -1.3125 7.25 -4.1875 6.625 C-4.5175 4.975 -4.8475 3.325 -5.1875 1.625 C-2.1875 -0.375 -2.1875 -0.375 0 0 Z " fill="#CC5B34" transform="translate(198.1875,67.375)"/>
<path d="M0 0 C-3.65482831 3.04569026 -7.7468179 4.94817191 -12 7 C-13.33425861 7.66481289 -14.6678582 8.33095557 -16 9 C-7.05652228 -2.21776415 -7.05652228 -2.21776415 0 0 Z " fill="#0F2136" transform="translate(137,24)"/>
<path d="M0 0 C0 1.32 0 2.64 0 4 C-5.28 4 -10.56 4 -16 4 C-11.71327571 -0.28672429 -5.76159905 -0.23516731 0 0 Z " fill="#2F3A49" transform="translate(204,122)"/>
<path d="M0 0 C0.33 0 0.66 0 1 0 C1 4.95 1 9.9 1 15 C1.66 15.33 2.32 15.66 3 16 C1.02 16.99 1.02 16.99 -1 18 C-1.02690844 15.37493198 -1.04679404 12.75013827 -1.0625 10.125 C-1.07087891 9.37863281 -1.07925781 8.63226563 -1.08789062 7.86328125 C-1.11328125 2.2265625 -1.11328125 2.2265625 0 0 Z " fill="#E6E3DA" transform="translate(175,103)"/>
<path d="M0 0 C0 0.66 0 1.32 0 2 C-1.65071396 3.02611949 -3.31970006 4.02308143 -5 5 C-6.75149165 6.58245275 -6.75149165 6.58245275 -8 8 C-8.99 7.67 -9.98 7.34 -11 7 C-9.90537324 3.8255824 -9.01822665 3.01085843 -6.0625 1.25 C-3 0 -3 0 0 0 Z " fill="#D5D4CF" transform="translate(138,34)"/>
<path d="M0 0 C-2.85584773 1.90389849 -4.9311762 2.69462177 -8.1875 3.625 C-9.08855469 3.88539062 -9.98960937 4.14578125 -10.91796875 4.4140625 C-11.94857422 4.70410156 -11.94857422 4.70410156 -13 5 C-13.33 4.01 -13.66 3.02 -14 2 C-8.77729131 -0.66464729 -5.9180497 -1.32854177 0 0 Z " fill="#D8D6D0" transform="translate(142,26)"/>
<path d="M0 0 C0.84755859 0.09345703 1.69511719 0.18691406 2.56835938 0.28320312 C3.44943359 0.38697266 4.33050781 0.49074219 5.23828125 0.59765625 C6.13095703 0.69755859 7.02363281 0.79746094 7.94335938 0.90039062 C10.14656346 1.14780927 12.34889906 1.40127904 14.55078125 1.66015625 C14.55078125 1.99015625 14.55078125 2.32015625 14.55078125 2.66015625 C11.44816619 2.91509843 8.34403323 3.13462633 5.23828125 3.34765625 C3.91666992 3.4569043 3.91666992 3.4569043 2.56835938 3.56835938 C1.72080078 3.62314453 0.87324219 3.67792969 0 3.734375 C-0.78028564 3.79197998 -1.56057129 3.84958496 -2.36450195 3.90893555 C-4.99508363 3.59501556 -5.8056866 2.67147182 -7.44921875 0.66015625 C-4.42059919 -0.3493836 -3.08836884 -0.35236423 0 0 Z " fill="#354252" transform="translate(141.44921875,21.33984375)"/>
<path d="M0 0 C0.33 0 0.66 0 1 0 C1.185625 0.9075 1.37125 1.815 1.5625 2.75 C3.53432362 7.208036 5.67961071 7.91981256 10 10 C10 10.99 10 11.98 10 13 C5.99847979 11.62805022 2.92819997 10.09552568 0 7 C-0.3125 3.25 -0.3125 3.25 0 0 Z " fill="#AAB0B3" transform="translate(133,133)"/>
<path d="M0 0 C0.33 1.98 0.66 3.96 1 6 C-1.97 5.67 -4.94 5.34 -8 5 C-7.34 4.34 -6.68 3.68 -6 3 C-6.33 2.34 -6.66 1.68 -7 1 C-4.50935112 0.31292445 -2.62113708 0 0 0 Z " fill="#E0DDD4" transform="translate(169,119)"/>
<path d="M0 0 C4.51290803 3.33562767 6.68206814 5.33289301 8 11 C7.01 11 6.02 11 5 11 C0 3.5 0 3.5 0 0 Z " fill="#1F2C3F" transform="translate(104,98)"/>
<path d="M0 0 C0 0.99 0 1.98 0 3 C-2.1875 4.75 -2.1875 4.75 -5 6 C-7.8125 5.6875 -7.8125 5.6875 -10 5 C-3.87096774 0 -3.87096774 0 0 0 Z " fill="#E5E2D9" transform="translate(190,117)"/>
<path d="M0 0 C2.97 0 5.94 0 9 0 C9 0.99 9 1.98 9 3 C6.03 3 3.06 3 0 3 C0 2.01 0 1.02 0 0 Z " fill="#EFECE2" transform="translate(194,125)"/>
<path d="M0 0 C2 1.375 2 1.375 4 3 C4 3.66 4 4.32 4 5 C2 6.625 2 6.625 0 8 C-0.99 7.01 -1.98 6.02 -3 5 C-1.125 1.125 -1.125 1.125 0 0 Z " fill="#D7D5CF" transform="translate(234,109)"/>
<path d="M0 0 C-1.29096781 0.81360995 -2.58279875 1.62585046 -3.875 2.4375 C-4.59429687 2.88996094 -5.31359375 3.34242187 -6.0546875 3.80859375 C-8 5 -8 5 -10 6 C-10.66 4.35 -11.32 2.7 -12 1 C-10.56496445 0.63597631 -9.12683494 0.28413409 -7.6875 -0.0625 C-6.88699219 -0.25972656 -6.08648437 -0.45695312 -5.26171875 -0.66015625 C-3 -1 -3 -1 0 0 Z " fill="#313B4B" transform="translate(95,105)"/>
<path d="M0 0 C0.66 0 1.32 0 2 0 C3.125 2.3125 3.125 2.3125 4 5 C3.01 6.485 3.01 6.485 2 8 C1.34 8 0.68 8 0 8 C-1.125 5.6875 -1.125 5.6875 -2 3 C-1.34 2.01 -0.68 1.02 0 0 Z " fill="#D8D6CF" transform="translate(83,65)"/>
<path d="M0 0 C2.97 0.99 5.94 1.98 9 3 C8.34 4.32 7.68 5.64 7 7 C4.36 5.68 1.72 4.36 -1 3 C-0.67 2.01 -0.34 1.02 0 0 Z " fill="#E3E1D9" transform="translate(165,26)"/>
<path d="M0 0 C1.5625 1.25 1.5625 1.25 3 3 C2.72963853 5.97397616 2.14553974 6.85446026 0 9 C-3 3.25 -3 3.25 -3 1 C-2.01 0.67 -1.02 0.34 0 0 Z " fill="#CECDC9" transform="translate(113,83)"/>
<path d="M0 0 C0.33 0 0.66 0 1 0 C0.67 3.96 0.34 7.92 0 12 C-0.66 12 -1.32 12 -2 12 C-2.28571429 3.42857143 -2.28571429 3.42857143 0 0 Z " fill="#04182F" transform="translate(182,100)"/>
<path d="M0 0 C-3.00617269 3.00617269 -5.82381598 2.59585316 -10 3 C-10.33 2.01 -10.66 1.02 -11 0 C-3.57142857 -1.28571429 -3.57142857 -1.28571429 0 0 Z " fill="#DB6134" transform="translate(224,72)"/>
<path d="M0 0 C0.33 0 0.66 0 1 0 C1 1.98 1 3.96 1 6 C1.66 6 2.32 6 3 6 C2.67 8.97 2.34 11.94 2 15 C1.67 15 1.34 15 1 15 C-0.32286246 10.03926578 -0.08893197 5.08888488 0 0 Z " fill="#04182F" transform="translate(190,181)"/>
<path d="M0 0 C0.33 0 0.66 0 1 0 C1.66 5.28 2.32 10.56 3 16 C2.67 15.34 2.34 14.68 2 14 C1.01 14 0.02 14 -1 14 C-0.67 9.38 -0.34 4.76 0 0 Z " fill="#BBBBB7" transform="translate(182,46)"/>
<path d="M0 0 C0.66 1.32 1.32 2.64 2 4 C1.01 5.485 1.01 5.485 0 7 C-0.33 6.01 -0.66 5.02 -1 4 C-2.65 4 -4.3 4 -6 4 C-6.33 3.01 -6.66 2.02 -7 1 C-4.50935112 0.31292445 -2.62113708 0 0 0 Z " fill="#2A3A4B" transform="translate(205,115)"/>
<path d="M0 0 C1.4606285 2.64738916 2 3.89448334 2 7 C1.34 7 0.68 7 0 7 C-0.33 8.32 -0.66 9.64 -1 11 C-1.33 8.03 -1.66 5.06 -2 2 C-1.34 2 -0.68 2 0 2 C0 1.34 0 0.68 0 0 Z " fill="#354251" transform="translate(114,94)"/>
<path d="M0 0 C3.96 0 7.92 0 12 0 C10.515 1.98 10.515 1.98 9 4 C9 3.34 9 2.68 9 2 C6.03 1.67 3.06 1.34 0 1 C0 0.67 0 0.34 0 0 Z " fill="#D3D1CB" transform="translate(122,124)"/>
<path d="M0 0 C0.66 0.33 1.32 0.66 2 1 C1.38125 1.7425 0.7625 2.485 0.125 3.25 C-1.60437281 5.48801188 -2.86106661 7.43739987 -4 10 C-4.66 9.67 -5.32 9.34 -6 9 C-4.47291037 5.56404834 -2.40072955 2.88087546 0 0 Z " fill="#37404F" transform="translate(193,96)"/>
<path d="M0 0 C0.33 1.32 0.66 2.64 1 4 C0.34 4 -0.32 4 -1 4 C-1 7.63 -1 11.26 -1 15 C-1.33 15 -1.66 15 -2 15 C-2.05386629 12.87527424 -2.09273071 10.75016348 -2.125 8.625 C-2.14820312 7.44164062 -2.17140625 6.25828125 -2.1953125 5.0390625 C-2 2 -2 2 0 0 Z " fill="#E8997B" transform="translate(109,41)"/>
<path d="M0 0 C1.32 0 2.64 0 4 0 C3.34 1.65 2.68 3.3 2 5 C1.01 5 0.02 5 -1 5 C-0.67 3.35 -0.34 1.7 0 0 Z " fill="#F0EDE2" transform="translate(126,41)"/>
<path d="M0 0 C3.3 0.33 6.6 0.66 10 1 C9.01 1.33 8.02 1.66 7 2 C6.67 2.66 6.34 3.32 6 4 C4.02 3.01 2.04 2.02 0 1 C0 0.67 0 0.34 0 0 Z " fill="#4D5661" transform="translate(204,105)"/>
<path d="M0 0 C2.88437779 1.29299694 4.87219421 2.65941363 7 5 C5.02 5.99 5.02 5.99 3 7 C0 2.25 0 2.25 0 0 Z " fill="#1B2B3F" transform="translate(119,72)"/>
<path d="M0 0 C0.33 1.32 0.66 2.64 1 4 C3.31 4.33 5.62 4.66 8 5 C8 5.33 8 5.66 8 6 C5.36 6 2.72 6 0 6 C-0.38218767 4.34385343 -0.71395102 2.67542976 -1 1 C-0.67 0.67 -0.34 0.34 0 0 Z " fill="#C55935" transform="translate(203,66)"/>
<path d="M0 0 C1.98 0 3.96 0 6 0 C5.34 1.32 4.68 2.64 4 4 C2.68 3.67 1.36 3.34 0 3 C0 2.01 0 1.02 0 0 Z " fill="#19293B" transform="translate(147,177)"/>
<path d="M0 0 C0 0.66 0 1.32 0 2 C0.66 2.33 1.32 2.66 2 3 C0.02 3.33 -1.96 3.66 -4 4 C-4 3.34 -4 2.68 -4 2 C-4.66 1.67 -5.32 1.34 -6 1 C-3 0 -3 0 0 0 Z " fill="#CBCAC4" transform="translate(195,120)"/>
<path d="M0 0 C0.99 0.99 1.98 1.98 3 3 C2.67 3.66 2.34 4.32 2 5 C1.34 4.67 0.68 4.34 0 4 C-0.33 5.32 -0.66 6.64 -1 8 C-1.66 8 -2.32 8 -3 8 C-1.125 2.25 -1.125 2.25 0 0 Z " fill="#DDDAD2" transform="translate(180,89)"/>
<path d="M0 0 C0.33 0.99 0.66 1.98 1 3 C-1.97 5.475 -1.97 5.475 -5 8 C-5.66 7.67 -6.32 7.34 -7 7 C-4.69 4.69 -2.38 2.38 0 0 Z " fill="#242F40" transform="translate(128,25)"/>
</svg>
